<?xml version="1.0" encoding="utf-8"?>
<!-- Generator: Adobe Illustrator 28.0.0, SVG Export Plug-In . SVG Version: 6.00 Build 0)  -->
<svg version="1.1" id="Слой_1" xmlns="http://www.w3.org/2000/svg" xmlns:xlink="http://www.w3.org/1999/xlink" x="0px" y="0px"
	 viewBox="0 0 100 100" style="enable-background:new 0 0 100 100;" xml:space="preserve">
<style type="text/css">
	.st0{clip-path:url(#SVGID_00000134969881134048844710000013134936676985693596_);fill:#002647;}
</style>
<g>
	<defs>
		<path id="SVGID_1_" d="M47.92,3.05c-6.98,0-12.63,5.65-12.63,12.63v6.59c0,6.97-5.65,12.63-12.63,12.63h-6.59
			c-5.3,0-9.85,3.27-11.72,7.91v16.04c1.87,4.63,6.41,7.9,11.72,7.9h6.59c6.97,0,12.63,5.65,12.63,12.63v6.59
			c0,4.82,2.7,9,6.66,11.13h18.53c3.97-2.13,6.66-6.32,6.66-11.13v-6.59c0-6.97,5.65-12.63,12.63-12.63h6.59
			c6.97,0,12.63-5.65,12.63-12.63v-6.59c0-6.97-5.65-12.63-12.63-12.63h-6.59c-6.97,0-12.63-5.65-12.63-12.63v-6.59
			c0-6.97-5.65-12.63-12.63-12.63H47.92z"/>
	</defs>
	<clipPath id="SVGID_00000164473613153604844740000004757758893879407754_">
		<use xlink:href="#SVGID_1_"  style="overflow:visible;"/>
	</clipPath>
	<path style="clip-path:url(#SVGID_00000164473613153604844740000004757758893879407754_);fill:#002647;" d="M15,65.03
		c-0.08,0.12,0.26,0.47,0.38,0.49c0.06,0.04,0.16,0.01,0.27-0.04c1.13-1.98,1.79-4.26,2.87-6.27c0.12-0.22-0.08-0.27-0.3-0.07
		c-0.86,0.82-1.61,1.73-2.17,2.78C15.66,62.63,14.78,64.19,15,65.03 M26.75,50.83c0,0,0.01,0,0.01-0.01c0,0,0,0,0,0
		C26.76,50.82,26.76,50.83,26.75,50.83 M93.07,75.15c-0.72-0.08-1.32-0.43-1.87-0.87c-1.82-1.45-3.5-3.12-4.89-4.98
		c-3.17-4.22-4.02-9.6-7.13-13.83c-2.83-3.84-7.04-6.95-11.26-9.1c-4.76-2.43-10.05-3.71-15.38-3.93
		c-12.18-0.51-25.41,4.05-34.51,12.22c-1.98,1.78-3.88,3.82-5.17,6.16c-0.89,1.62-2.75,5.8-0.63,7.27c0.17,0.12,0.35,0.17,0.54,0.18
		c0.81,0.01,1.22-0.99,0.66-1.58c-0.45-0.48-0.73-1.12-0.67-1.84c0.11-2.42,1.37-5,3.06-6.71c1.2-1.31,2.7-2.36,4.17-3.35
		c2.15-1.46,4.4-2.84,6.74-3.97c0,0,0,0,0.01,0c0.01-0.01,0.02-0.01,0.03-0.01c1.5-1,3.04-1.89,4.56-2.69
		c5.12-2.72,10.85-4.5,16.66-4.77c0.77-0.03,1.85,0.13,2.47,0.63c0.87,0.72-1.67,1.05-2.05,1.09c-2.27,0.35-4.51,0.5-6.75,1.07
		c-5.91,1.49-11.47,4.71-16.18,8.56c-2.19,1.79-3.98,3.68-5.24,6.24c-1.3,2.63-2.07,5.68-4.1,7.89c-1.4,1.52-3.76,2.67-5.51,0.97
		c-1.95-1.87-1.85-4.69-1.11-7.1c1.76-5.71,6.75-10.15,11.56-13.39c5.2-3.51,11.07-6.06,17.14-7.62c12.06-3.11,25.22-1.85,35.5,5.56
		c2.26,1.63,7.02,5.95,7.47,6.28c1.55,1.18,2.9,2.56,4.15,4.05c2.56,3.06,4.54,6.52,6.5,9.97c0.1,0.18,0.04,0.06,0.01,0.01
		c0.22,0.41,0.8,2.05,0,2.15c-0.85,0.1-1.6-0.92-2.01-1.52c-1.16-1.71-2.26-3.46-3.43-5.16c-0.81-1.19-1.94-0.01,1.41,4.73
		c1.44,2.04,3.26,3.63,5.11,5.27c0,0,0,0,0.01,0.01c0.07,0.06,0.02,0.02,0,0C93.42,73.51,94.56,75.31,93.07,75.15 M92.18,77.76
		c-0.68-0.66-1.48-1.12-2.25-1.66c-7.24-5.73-7.92-15.69-14.02-22.28c-3.49-3.77-7.82-6.61-12.66-8.33c-1.17-0.42-5.8-1.6-6.88-1.58
		c-0.44,0.01-1.6-0.07-1.69,0.53c-0.1,0.66,7.09,2.72,9.7,3.89c2.34,1.05,4.52,2.38,6.51,3.99c2.45,1.98,4.7,4.37,6.23,7.13
		c2.13,3.84,4.75,8.52,5.7,13.1c0.65,3.13,1.64,6.63,3.28,9.31c0.82,1.35,1.88,2.96,3.23,3.85c0.38,0.25,1.6,0.86,1.96,0.26
		c0.3-0.51-0.45-1.53-0.78-1.88c-0.01-0.01-0.01-0.01-0.01-0.01c-4.55-5.09-5.28-8.93,0.99-4.93c0.28,0.18,1.26,0.22,1.44-0.21
		C93.1,78.53,92.43,78,92.18,77.76 M29.49,26.35c-3.16,1.21-6.09,3.44-7.6,6.48c-2,4.02-6.17,7.75-4.09,3.44
		c1.51-3.11,3.14-6.29,5.8-8.62c2.13-1.87,5.54-3.45,8.21-4.29c3.7-1.17,9.72-2.54,13.25-3.03c2.98-0.41,5.95-0.57,8.92-0.98
		c5.98-0.82,12.12-1.38,18.03,0.14c5.71,1.47,11.04,4.23,16.29,6.85c1.27,0.63,2.54,1.32,3.61,2.26c0.74,0.65,1.84,2.52,2.91,1.31
		c1.85-2.07-3.22-4.79-4.62-5.64c-5.2-3.19-11.11-5.51-17-7.05c-5.83-1.53-11.56-1.26-17.47-0.43c-2.93,0.41-5.85,0.86-8.8,1.17
		c-2.86,0.3-5.72,0.54-8.55,1.08c-2.8,0.53-5.53,1.38-8.18,2.4c-2.57,0.98-5.29,2.07-7.49,3.76c-2.2,1.69-4.11,4.16-5.43,6.57
		c-1.9,3.48-1.89,7.58-5.26,10.46c-3.06,2.62-6.12,5.37-8.24,8.81c-0.93,1.5-1.74,3.12-2.27,4.81c-0.22,0.71-0.5,1.95,0.14,2.54
		c0.6,0.55,1.47-1,1.63-1.41c0,0,0,0,0,0s0,0,0,0c4.21-11.13,15.44-17.54,26.13-21.39c11.17-4.02,23.21-5.17,34.84-2.48
		c5.68,1.31,11.14,3.53,15.96,6.84c4.82,3.32,9.03,7.6,12.41,12.37c0.39,0.56,0.76,1.02,1.29,1.47c0.26,0.22,0.92,0.82,1.31,0.58
		c0.45-0.28,0.04-1.34-0.08-1.7c-0.31-0.92-0.93-1.69-1.5-2.47c-0.83-1.14-1.7-2.26-2.61-3.34c-3.88-4.64-8.53-8.43-13.77-11.42
		c-9.06-4.66-19.33-6.16-29.48-5.69c-2.9,0.13-7.48,0.89-12.18,1.86c-1.07,0.22-1.44-0.49-0.42-0.84c1.77-0.61,3.6-1.04,5.53-1.56
		c5.87-1.61,12.08-1.83,18.11-1.11c6.01,0.72,11.78,1.66,17.25,4.26c5.52,2.62,10.56,5.84,14.29,10.76c1.13,1.49,2.2,3.04,3.4,4.48
		c0.72,0.86,1.51-0.47,0.29-2.6c-1.45-2.54-2.41-3.37-4.44-5.49c-4.09-4.29-9.83-8.38-15.23-10.65c-5.56-2.34-11.49-2.81-17.5-3.29
		c-6.08-0.49-12.45,0.49-18.29,2.36c-4.35,1.39-6.77,3.02-9.46,4.4c-4.01,2.06-2.91-0.36-1.6-1.31c4.96-3.58,11.29-5.59,17.22-6.56
		c3-0.49,6.03-0.92,9.05-1.26c3.02-0.34,6.1,0,9.08,0.54c5.92,1.09,12.13,3.02,17.37,6.05c2.64,1.52,5.04,3.42,7.31,5.44
		c2.09,1.85,4.02,3.92,6.19,5.69c0.77,0.63,2.02,1.74,3.09,1.62c0.67-0.07,0.71-0.87,0.67-1.39c-0.05-0.71-0.7-1.3-1.2-1.74
		c-1-0.88-2.18-1.53-3.1-2.5c-0.84-0.88-1.78-1.67-2.72-2.44c-4.1-3.34-8.5-6.52-13.38-8.6c-1.16-0.49-2.33-0.94-3.49-1.44
		c-0.34-0.15-1.17-0.39-1.34-0.76c-0.21-0.47,1.3-0.44,1.52-0.4c2.47,0.4,4.84,1.96,6.95,3.21c2.15,1.26,4.25,2.6,6.32,3.98
		c1.07,0.71,2.12,1.43,3.16,2.19c1.07,0.78,2.07,1.73,3.24,2.37c1.05,0.58,2.55,0.92,3.17-0.42c0.62-1.33-2.02-2.09-2.87-2.54
		c-2.65-1.43-5.17-3.06-7.71-4.66c-5.18-3.27-10.38-6.34-16.51-7.34c-5.98-0.98-12.22,0.14-18.17,1.05
		C43.51,22.3,37.7,23.21,29.49,26.35 M89.06,87.77c-4.84-4.79-5.52-7.84-7.48-14.75c-1.65-5.81-3.66-11.05-7.5-15.85
		c-0.58-0.73-4.71-4.55-4.02-2.89c0.78,1.86,2.28,3.45,3.48,5.07c5.29,7.15,4.69,11.71,6.91,17.56c1.23,3.25,2.7,6.42,4.7,9.27
		c0.75,1.06,1.59,2.29,2.61,3.11c0.35,0.28,1.43,0.96,1.86,0.5C90.07,89.32,89.38,88.16,89.06,87.77
		C89.06,87.76,89.06,87.76,89.06,87.77 M23.75,68.37c-2.13,2.22-5.36,4.26-8.06,5.75c-2.25,1.25-5.63,2.92-8.22,1.71
		c-2.58-1.21-2.9-5.11-3.01-7.57c-0.14-3.03,0.43-6.05,1.57-8.85c4.61-11.33,16.8-18.34,27.97-21.75c12.08-3.69,25.33-3.5,37,1.54
		c6.92,2.99,12.93,7.62,17.62,13.53c1.74,2.19,3.24,4.58,4.52,7.06c0.45,0.87,0.81,1.84,1.6,2.48c1.33,1.07,1.32-1.01,0.99-1.83
		c0.01,0.03,0.08,0.2,0.09,0.22c0-0.01-0.03-0.07-0.09-0.22c0-0.01,0,0,0,0c-1.58-3.98-4.29-7.77-7.07-10.97
		c-3.92-4.52-8.72-8.26-14.05-10.98c-11.17-5.71-24.54-7.08-36.72-4.23c-11.67,2.63-23.71,8.53-30.82,18.48
		c-2.99,4.19-4.95,9.16-5,14.35c-0.03,2.72,0.27,5.86,1.63,8.27c1.55,2.75,4.5,3.61,7.48,3.06c5.8-1.07,10.96-5.56,15.17-9.45
		C29.1,66.43,26.1,65.93,23.75,68.37 M32.6,62.5c2.2-1.95,4.66-3.62,7.31-4.91c4.85-2.35,11.18-3.84,16.24-1.28
		c4.4,2.23,8.05,6.09,9.6,10.8c2.66,8.05-0.34,16.96-4.23,24.07c-3.93,7.19-9.38,13.66-15.74,18.82c-0.87,0.7-1.75,1.37-2.64,2
		c-0.22,0.16-0.45,0.31-0.67,0.46l-0.05,0.03l0,0l-0.01,0.01l-0.02,0.02l-0.08,0.06c-0.22,0.17-0.62,0.57-0.95,0.99
		c-0.33,0.41-0.57,0.85-0.43,1.09c0.14,0.24,0.64,0.21,1.17,0.09c0.53-0.13,1.08-0.36,1.33-0.5c0.02-0.01,0.05-0.03,0.07-0.04
		l0.03-0.02l0.02-0.01l0,0l0.05-0.03l0.14-0.1c0.19-0.13,0.38-0.26,0.57-0.39c0.19-0.13,0.38-0.27,0.57-0.41
		c0.38-0.27,0.76-0.56,1.14-0.84c1.52-1.15,3.04-2.43,4.55-3.83c8.68-8.04,16.4-19.08,18.13-31.02c0.89-6.14-0.19-12.51-4.16-17.43
		c-3.01-3.73-7.48-6.86-12.34-7.39c-6.13-0.67-12.4,1.68-17.43,5.05c-1.45,0.97-2.83,2-4,3.25C27.66,64.37,28.58,66.06,32.6,62.5
		 M71.26,85.15c-0.64,2.01-2.14,3.66-3.05,5.58c-0.26,0.56,0.42,1.09,0.9,0.69c1.13-0.96,2.08-2.15,2.77-3.44
		c1.84-3.41,1.95-7.39,1.28-11.2c-0.09-0.5-0.82-0.47-0.88,0.04c0,0.01,0,0.02,0,0.03C71.98,79.56,72.09,82.54,71.26,85.15
		 M95,66.51c0.16,0.42,0.48,2.16-0.33,2.15c-0.71-0.01-1.33-0.97-1.6-1.52c-0.79-1.54-1.51-3.1-2.33-4.62
		c-2.14-3.96-5.02-7.82-8.29-10.93c-7.72-7.34-17.36-12.04-28.06-12.86c-11.83-0.9-24.16,3.22-33.92,9.77
		c-4.96,3.33-9.82,7.76-11.86,13.53c-0.96,2.7-1.43,6.02-0.07,8.68c0.61,1.19,1.41,1.33,2.79,1.48c4.44,0.48,8.29-4.43,8.43-5.94
		c0.07-0.78,0.1-1.49,0.35-2.21c0.92-2.64,2.61-4.67,4.56-6.62c4.02-4.02,8.84-7.35,14.16-9.4c5.94-2.32,12.44-3.01,18.6-1.17
		c4.76,1.42,9.25,4.98,12.36,8.76c1.9,2.3,3.39,4.94,4.79,7.56c1.42,2.66,5.7,16.34,6.18,17.56c1.49,3.75,3.57,7.08,6.31,10.04
		c0.47,0.48,1.25,1.39,1.26,2.09c0.01,0.83-1.69,0.01-1.99-0.16c-0.77-0.44-1.91-1.21-3.02,1.75c-1.01,2.69-2.91,4.56-5.15,6.36
		c-1.15,0.92-2.44,2.15-3.81,2.71c-0.76,0.31-1.57,0.52-2.28,0.95c-2.4,1.45-3.25,4.57-4.67,6.82c-0.33,0.52-0.68,1.01-1.04,1.46
		c-0.09,0.11-0.18,0.22-0.28,0.33c-0.11,0.13-0.23,0.25-0.34,0.37c-0.03,0.03-0.06,0.06-0.09,0.09c-0.04,0.04-0.09,0.09-0.13,0.13
		c-0.05,0.05-0.1,0.1-0.15,0.15c-0.22,0.21-0.67,0.48-1.11,0.61c-0.44,0.13-0.86,0.13-1.02-0.09c-0.16-0.23-0.05-0.61,0.13-0.99
		c0.17-0.38,0.4-0.75,0.57-0.94c0.04-0.05,0.08-0.09,0.12-0.14c1.91-2.13,2.67-4.93,4.24-7.27c0.77-1.15,1.75-2.14,2.98-2.79
		c0.86-0.46,1.82-0.71,2.7-1.13c2.68-1.29,4.94-3.46,6.49-5.98c0.72-1.17,1.34-2.48,1.65-3.82c0.1-0.41,0.21-3.75-1.45-5.16
		c-0.59-0.5-1.41-0.52-1.56,0.25c-0.03,0.15-0.06,0.3-0.09,0.45c-0.63,2.94-1.9,5.85-4.16,7.91c-1.85,1.69-4.08,2.69-6.18,4.01
		c-2.28,1.42-3.44,3.87-5.02,5.96c-1.79,2.35-3.75,4.59-5.85,6.66c-0.72,0.72-1.43,1.39-2.13,2.02c-0.35,0.32-0.69,0.62-1.03,0.92
		c-0.12,0.1-0.09,0.08-0.11,0.09l-0.03,0.02l-0.06,0.05c-0.23,0.17-0.74,0.47-1.24,0.67c-0.51,0.2-1,0.29-1.17,0.08
		c-0.18-0.21,0-0.68,0.27-1.14c0.27-0.46,0.62-0.92,0.81-1.12l0.07-0.07l0.02-0.02l0.01-0.01l0.03-0.02c0.1-0.09,0.2-0.18,0.3-0.27
		c0.2-0.18,0.4-0.37,0.6-0.55c0.2-0.19,0.4-0.38,0.6-0.57c3.7-3.47,6.9-7.42,9.65-11.68c2.52-3.9,7.79-4.56,10.39-8.46
		c2.55-3.83,2.86-9.15,2.39-13.6c-0.58-5.4-3.03-10.59-5.69-15.26c-2.75-4.82-6.18-8.85-11.05-11.65c-4.49-2.58-9.6-3.16-14.67-2.32
		c-5.28,0.87-10.13,3.21-14.5,6.23c-2.14,1.53-4.12,3.27-5.95,5.15c-0.38,0.39-0.72,0.78-1.04,1.18c-0.45,0.57,0.35,1.27,0.85,0.75
		c0.48-0.5,0.96-1,1.44-1.5c3.39-3.53,7.45-6.44,11.94-8.42c5.53-2.44,12.06-3.64,17.93-1.71c3.62,1.19,6.78,3.62,9.46,6.27
		c2.74,2.71,6.23,10.52,6.35,10.73c0.42,0.71,0.77,1.49,1.1,2.25c1.96,4.53,3.11,9.55,2.37,14.49c-0.71,4.74-3.76,9.41-8.42,11.07
		c0,0,0,0-0.01,0c-0.01,0-0.02,0.01-0.03,0.01c-0.3,0.11-2.75,2.54-3.56,3.73c-2.44,3.59-5.22,6.92-8.14,9.92
		c-1.39,1.43-2.8,2.75-4.2,3.97c-0.35,0.3-0.7,0.6-1.05,0.89c-0.35,0.29-0.7,0.57-1.05,0.85l-0.13,0.1l-0.05,0.04l0,0l-0.02,0.01
		l-0.03,0.02c-0.02,0.02-0.04,0.03-0.07,0.04c-0.24,0.16-0.76,0.44-1.28,0.6c-0.52,0.17-1.01,0.23-1.18,0.01
		c-0.16-0.23,0.04-0.68,0.34-1.12c0.3-0.44,0.67-0.88,0.87-1.07l0.07-0.06l0.02-0.02l0.01-0.01l0,0l0.04-0.04
		c0.21-0.16,0.41-0.33,0.62-0.5c0.2-0.17,0.41-0.34,0.62-0.51c0.2-0.18,0.41-0.35,0.61-0.53c6.5-5.55,12.01-12.59,15.84-20.23
		c3.17-6.33,5.74-14.16,4.42-21.33c-0.95-5.19-3.29-9.68-7.31-13.15c-3.65-3.16-7.95-5.12-12.87-5.01
		c-6.06,0.14-11.99,2.7-16.81,6.25c-4.37,3.22-7.55,7.66-11.69,11.14c-3.18,2.67-10.94,9.07-14.42,3.58
		C3.72,67.63,5.79,61,8.72,56.55c3.3-5.01,8.25-8.85,13.39-11.84c5.42-3.16,11.36-5.49,17.45-6.99c12.03-2.96,24.95-1.05,35.55,5.39
		c5.1,3.1,9.44,7.17,13.13,11.84C90.91,58.39,93.47,62.41,95,66.51C95,66.51,95,66.51,95,66.51c0.06,0.15,0.08,0.21,0.08,0.22
		C95.08,66.71,95.01,66.54,95,66.51 M59.52,87.22c-0.9,2.23-2.31,4.19-3.55,6.09c-2.27,3.46-4.93,6.68-7.83,9.63
		c-2.98,3.02-6.35,5.99-10.07,8.07c-0.21,0.12-0.42,0.24-0.62,0.36c-0.06,0.04-0.11,0.07-0.17,0.11c-0.22,0.15-0.57,0.46-0.84,0.8
		c-0.26,0.34-0.44,0.71-0.32,0.96c0.12,0.25,0.53,0.31,0.97,0.28c0.44-0.03,0.93-0.15,1.18-0.29c0.06-0.03,0.12-0.06,0.18-0.09
		l0.03-0.02l0.18-0.1c0.12-0.07,0.23-0.13,0.35-0.2c0.12-0.07,0.24-0.13,0.35-0.2c0.12-0.07,0.23-0.14,0.35-0.22
		c0.47-0.29,0.95-0.57,1.41-0.89c0.47-0.31,0.94-0.62,1.4-0.96c7.89-5.62,14.93-13.34,19.02-22.25
		C64.3,82.26,60.83,83.97,59.52,87.22 M64.92,79.12c0.91-3.69,1-7.57-0.1-11.21c-1.49-4.94-5.73-9.69-10.74-11.27
		c-5.76-1.82-12.45,0.77-17.23,3.96c-4.59,3.06-7.78,7.56-11.88,11.17c-4.29,3.79-9.81,7.98-15.79,8.04
		c-1.43,0.01-2.74-0.78-4.21-0.75c-0.39,0-0.6,0.07-0.7,0.19c-0.09,0-0.17,0.03-0.24,0.11c-0.3,0.35-0.21,0.94-0.1,1.34
		c0.33,1.02,0.92,1.67,1.85,2.12c3.75,1.82,13.62,2.89,20.03-0.14c2.01-0.95,3.75-2.31,5.42-3.77c3.86-3.41,6.58-7.96,10.96-10.79
		c1.54-0.99,3.33-1.91,5.15-2.29c2.71-0.61,5.49,0.76,7.16,2.86c3.58,4.52,1.1,10.87-1.2,15.42c-2.74,5.41-6.42,10.23-11,14.21
		c-4.45,3.87-9.88,7.38-15.82,8.25c-0.52,0.08-5.52,0.46-3.98,1.55c1.85,1.31,4.87,0.53,6.84,0.03c5.89-1.5,11.22-5.07,15.66-9.13
		c4.52-4.13,8.17-9.13,10.83-14.64c2.33-4.84,4.34-11.01,1.33-16c-1.45-2.39-3.83-4.24-6.58-4.82c-2.95-0.63-5.85,0.44-8.4,1.88
		c-2.21,1.25-4.21,2.86-5.93,4.72c-1.54,1.66-2.86,3.5-4.43,5.13c-2.41,2.52-5.27,4.93-8.54,6.24c-0.01,0-0.02,0.01-0.03,0.01
		c-2.25,1.01-2.52,0.14-0.45-0.91c0.15-0.08,0.28-0.18,0.42-0.27c4.73-3.1,8.52-7.1,12.39-11.16c3.78-3.97,9.54-7.58,15.24-7.22
		c1.72,0.1,3.14,1.01,4.46,2.05c1.9,1.5,3.45,3.58,4.03,5.96c0.87,3.57,0.26,7.24-0.88,10.69c-1.32,4-3.35,7.81-5.75,11.27
		c-2.87,4.15-6.33,7.83-10.21,11.06c-1.99,1.66-4.09,3.2-6.32,4.54c-0.81,0.48-1.63,0.95-2.47,1.37c-1.04,0.51-2.32,0.87-3.18,1.69
		c-0.31,0.29-0.54,0.63-0.46,0.9c0.08,0.27,0.47,0.39,0.91,0.43c0.44,0.03,0.96-0.01,1.22-0.11c0.06-0.02,0.12-0.05,0.19-0.07
		l0.04-0.01l0.18-0.08c0.12-0.05,0.25-0.1,0.37-0.15c0.25-0.1,0.5-0.19,0.74-0.32c10.47-5.03,18.97-13.68,24.44-23.86
		c2.47-4.95,4.61-10.58,3.83-16.21c-0.64-4.6-3.53-8.19-7.48-10.51c-4.69-2.75-11.33,0-15.44,2.65c-4.62,2.98-7.82,7.55-11.91,11.15
		c-3.17,2.79-6.78,5.51-10.83,6.82c-1.57,0.51-2.19-0.06-0.35-0.84c2.87-1.23,5.52-2.95,7.98-4.86c2.43-1.88,4.7-3.96,6.81-6.2
		c1.58-1.67,3.04-3.4,4.82-4.88c4.41-3.67,10.75-6.85,16.65-5.81c2.66,0.46,5.13,2.33,6.95,4.25c2.03,2.13,3.33,4.82,3.8,7.72
		c0.43,2.66,0.28,5.35-0.31,7.99C61.85,82.35,63.73,83.96,64.92,79.12 M32.7,89.93c2.32-1.47,4.44-3.22,6.34-5.2
		c0.61-0.64,1.28-1.3,1.75-2.06c0.36-0.59,1.32-2.93-0.26-2.11c-1,0.52-1.74,1.36-2.53,2.14c-1.01,0.99-2.06,1.92-3.16,2.8
		c-2.18,1.73-4.58,4.26-7.12,5.41c-2.43,1.11-5.04,0.91-7.73,0.97c-1.24,0.07-2.45-0.25-3.69-0.11c-1.79,0.26-0.29,1.7,0.72,1.93
		c-0.03-0.01-0.08-0.02,0.01,0c0.02,0,0.02,0,0.01,0C22.5,94.88,28.11,92.84,32.7,89.93 M44.81,94.27
		c4.14-4.14,7.55-9.52,9.44-15.07c0.9-2.65,1.6-5.82,0.32-8.46c-1.27-2.6-4.19-4.08-7.04-3.79c-3.99,0.41-7.4,3.5-9.7,6.56
		c-3.25,4.32-7.28,7.85-11.96,10.59c-5.19,2.88-10.69,1.38-16.25,1.04c-0.86-0.05-1.59-0.07-2.43,0.21
		c-0.34,0.11-1.22,0.42-1.16,0.89c0.08,0.53,1.3,0.7,1.72,0.78c0.94,0.21,1.92,0.18,2.87,0.29c1.51,0.17,3.02,0.42,4.53,0.59
		c3.11,0.35,6.29,0.35,9.28-0.68c2.61-0.9,4.98-2.53,7.17-4.18c2.43-1.83,4.76-3.87,6.7-6.22c1.17-1.42,5.14-6.32,8.5-4.62
		c2.21,1.13,2.43,2.44,1.91,4.51c-0.75,2.96-2.44,5.68-4.18,8.15c-3.54,5.01-7.96,8.96-13.59,11.48
		c-5.36,2.39-11.83,3.37-17.11,0.24c-0.79-0.47-1.51-1.05-2.45-1.19c-1.53-0.23-0.41,1.67,0.16,2.12c-0.03-0.02-0.08-0.06,0,0
		c0.02,0.01,0.01,0.01,0,0c8.64,6.85,21.32,2,28.78-4.28c3.82-3.22,7.03-7.61,9.19-12.09c1.12-2.32,2.2-5.18,1.6-7.79
		c-0.43-1.86-2-2.84-3.74-3.24c-0.39-0.09-0.39-0.65,0-0.72c0.01,0,0.01,0,0.02,0c2.18-0.41,4.56,0.8,5.25,2.96
		c0.89,2.75-0.54,6.15-1.65,8.64c-0.98,2.19-2.17,4.32-3.52,6.3c-3.86,6-9.86,11.03-16.46,13.74c-3.34,1.37-7.03,2.15-10.64,1.65
		c-0.84-0.12-1.65-0.31-2.47-0.5c-0.48-0.11-1.81-0.24-2.05,0.35c-0.28,0.66,1.01,1.42,1.48,1.58c-0.03-0.01-0.09-0.03,0,0
		c0.02,0.01,0.01,0,0,0C27.14,107.48,38.12,100.96,44.81,94.27 M11.87,92.31c1.34,1.28,4.37,2.44,8.31,2.58
		c2.52,0.09,6.4-0.21,10.53-2.15c6.1-2.87,13.61-11.97,14.29-16.22c0.09-0.57,0.04-0.99-0.14-1.16c-0.09-0.09-0.14-0.09-0.17-0.09
		c-0.74-0.03-2.51,1.82-4.23,3.61c-2.58,2.68-6.11,6.36-10.93,9.32c-4.64,2.86-9.22,3.05-12.25,2.94c-1.15-0.04-2.19-0.14-3.12-0.22
		c-0.72-0.06-1.34-0.12-1.87-0.14C11.52,90.75,11.47,91.93,11.87,92.31 M20.11,96.9C14.4,96.7,9.8,94.47,9.17,91.6
		c-0.19-0.84-0.07-1.53,0.35-2.03c0.65-0.78,1.75-0.85,2.85-0.81c0.58,0.02,1.23,0.08,1.98,0.15c0.9,0.08,1.92,0.17,3.01,0.21
		c2.77,0.1,6.95-0.07,11.12-2.64c4.59-2.83,8.03-6.4,10.53-9c2.48-2.58,4.12-4.28,5.76-4.22c0.56,0.02,1.05,0.24,1.48,0.64
		c0.48,0.46,1,1.34,0.74,2.95c-0.78,4.84-8.55,14.49-15.43,17.72C27.07,96.68,22.85,97,20.11,96.9 M85.59,94.08
		c-0.52-0.13-1.15,0.95-1.38,1.28c-1.16,1.66-2.09,3.31-3.56,4.75c-1.87,1.84-4.05,3.32-6.23,4.76c-1.99,1.3-3.77,2.63-5.09,4.64
		c-0.47,0.73-0.87,1.67-0.57,2.55c0.36,1.08,1.55-0.29,1.9-0.79c-0.03,0.04-0.04,0.06,0.03-0.05c1.07-1.74,2.64-2.93,4.35-3.99
		c2.16-1.34,4.31-2.73,6.2-4.44c1.69-1.53,3.16-3.3,4.16-5.36c0.34-0.7,0.58-1.43,0.57-2.22C85.98,94.89,85.99,94.18,85.59,94.08
		 M78.52,106.94c-0.5,0.17-1.02,0.43-1.25,0.58c-0.03,0.02-0.07,0.05-0.12,0.08c-0.73,0.26-2.16,1.34-2.82,2.06
		c-0.07,0.05-0.12,0.09-0.17,0.13c-0.43,0.34-1.26,1.44-0.95,1.9c0.32,0.46,1.64,0.05,2.12-0.25c0.06-0.04,0.11-0.07,0.18-0.12
		c0.87-0.38,2.29-1.29,2.87-2.1c0.04-0.04,0.08-0.07,0.11-0.1c0.21-0.19,0.61-0.63,0.9-1.1c0.29-0.46,0.47-0.94,0.29-1.15
		C79.5,106.67,79.02,106.77,78.52,106.94 M68.63,103.02c1.49-1.94,4.05-2.91,6.02-4.29c2.1-1.48,4.07-3.22,5.46-5.4
		c0.5-0.82,1.02-1.65,0.97-2.65c-0.03-1.78-1.57-0.42-2.02,0.36c0,0.01,0,0.01,0,0c-1.17,2-2.72,3.59-4.57,4.97
		c-2.04,1.52-4.52,2.53-6.45,4.17c-1.69,1.43-2.75,3.54-3.96,5.35c-1.49,2.23-3.15,4.33-5.01,6.27c-0.19,0.2-0.38,0.39-0.57,0.58
		c-0.09,0.09-0.19,0.19-0.28,0.28l-0.07,0.07l-0.04,0.04l-0.07,0.07c-0.18,0.2-0.53,0.65-0.79,1.11c-0.27,0.45-0.45,0.92-0.27,1.14
		c0.18,0.22,0.67,0.12,1.18-0.07c0.5-0.2,1.03-0.51,1.25-0.69l0.06-0.05l0.03-0.03l0.04-0.03c0.08-0.07,0.17-0.14,0.26-0.22
		c0.17-0.15,0.35-0.31,0.53-0.48c0.36-0.33,0.75-0.7,1.14-1.1c0.79-0.79,1.63-1.72,2.47-2.75
		C65.67,107.56,66.98,105.17,68.63,103.02 M46.67-14.76c0.67-0.13,2.76-0.85,1.67-1.79c-0.86-0.75-2.42-0.92-3.5-0.89
		c-2.71,0.09-5.3,1.54-7.62,2.83c-0.71,0.39-3.01,1.22-2.27,2.38c0.66,1.04,2.28,0.17,3.11-0.12
		C40.87-13.32,43.74-14.21,46.67-14.76C46.96-14.82,46.44-14.72,46.67-14.76 M51.71-11.97c2.08-0.6,4.25-0.93,6.37-1.29
		c0.76-0.13,1.71-0.14,2.4-0.51c0.86-0.46,0.5-1.63-0.3-1.94c-0.95-0.37-2.14-0.02-3.11,0.11c-1,0.13-1.99,0.32-2.97,0.55
		c-1.99,0.46-3.94,1.07-5.91,1.61c-2.82,0.78-5.66,1.48-8.51,2.16c-2.87,0.68-5.82,1.21-8.54,2.37c-2.9,1.24-5.02,3.14-7.39,5.13
		c-1.14,0.96-2.41,1.78-3.47,2.84c-0.39,0.39-2.18,2.53-0.71,2.71c1.22,0.15,2.68-1.56,3.55-2.23c1.17-0.91,2.36-1.8,3.51-2.74
		c2.42-1.97,4.82-3.42,7.84-4.3C40.17-9.16,46.01-10.32,51.71-11.97C51.92-12.03,51.49-11.9,51.71-11.97 M77.74-2.43
		c0.08,0.02,0.15,0.05,0.23,0.07c-0.09-0.03-0.17-0.05-0.26-0.08c1.58,0.5,1.84-1.14,0.79-2.04c-0.98-0.85-2.81-0.91-4.04-1.03
		c-1.4-0.14-2.81-0.15-4.22-0.05c-3.03,0.22-5.97,0.89-8.92,1.57c-5.91,1.35-11.8,2.76-17.7,4.12c-2.85,0.66-5.72,1.21-8.59,1.79
		c-0.66,0.13-1.32,0.26-1.99,0.34c-0.3,0.03-1.56,0.07-0.76-0.43c0.95-0.6,2.19-0.85,3.27-1.15c5.84-1.63,11.75-3.01,17.62-4.52
		c2.91-0.75,5.8-1.56,8.71-2.3c2.86-0.73,5.75-1.35,8.72-1.17c1.54,0.09,2.94,0.36,4.42,0.75c1.5,0.4,1.62-1.24,0.67-2
		c-2.22-1.77-5.98-1.61-8.61-1.21c-2.99,0.45-5.92,1.39-8.85,2.14c-2.97,0.76-5.94,1.55-8.9,2.36c-2.91,0.8-5.79,1.68-8.72,2.41
		c-2.92,0.72-5.92,1.31-8.74,2.38c-2.6,0.99-4.82,2.52-7.11,4.07c-0.58,0.39-1.15,0.79-1.76,1.13c-0.14,0.08-1.02,0.55-0.78,0.02
		c0.45-0.97,1.51-1.83,2.28-2.53c4.34-3.96,10.16-5.71,15.74-7.06c5.89-1.43,11.88-2.43,17.69-4.17c2.68-0.8,5.29-1.67,8.08-1.93
		c1.07-0.1,3.01-0.16,3.3-1.47c0.28-1.29-1.73-1.2-2.5-1.14c-2.58,0.19-5.18,1-7.66,1.71c-2.79,0.81-5.55,1.71-8.35,2.48
		c-5.68,1.57-11.62,2.07-17.25,3.84c-5.72,1.79-10.29,5.9-14.31,10.2c-2.05,2.19-4.13,4.38-5.96,6.76c-2.27,2.95,0.16,3.41,0.6,2.86
		c0.89-1.12,1.9-2.14,3-3.06c2.35-1.98,5.07-3.51,7.92-4.62c2.83-1.1,5.78-1.68,8.75-2.24c2.92-0.54,5.83-1.12,8.73-1.72
		c5.85-1.21,11.71-2.4,17.51-3.82C65.69-2.61,71.75-4.3,77.74-2.43C78.34-2.24,77.51-2.5,77.74-2.43 M74.05,0.42
		c2.12,0.1,4.29,0.25,6.37,0.72c0.97,0.22,2.28-0.43,1.21-1.41c-0.77-0.71-2.02-0.91-3.01-1.12c-4.95-1.02-10.05-0.67-14.88,0.73
		C52.32,2.65,40.87,3.85,29.11,7.31c-2.96,0.87-7.19,2.82-9.8,4.5c-2.45,1.58-8.23,7.1-9.72,9.57c-2.99,4.95-1.28,6.14,2.37,0.99
		c1.69-2.38,8.08-7.8,10.52-9.4C27.52,9.67,33.8,8.38,39.6,6.98c2.88-0.69,5.8-1.25,8.72-1.75c2.94-0.5,5.87-0.88,8.72-1.78
		c2.81-0.88,5.57-1.85,8.47-2.39C68.32,0.53,71.2,0.28,74.05,0.42C74.43,0.43,73.83,0.41,74.05,0.42 M66.71,6.68
		c4.38,0,8.68,1.16,12.88,2.36c1.75,0.5,3.48,1.05,5.22,1.58c0.92,0.28,4.48,1.54,3.5-0.78c-0.44-1.04-1.92-1.19-2.86-1.47
		c-0.95-0.29-1.88-0.65-2.81-1.01c-1.88-0.72-3.74-1.29-5.73-1.59c-2.44-0.36-4.9-0.54-7.36-0.74c-1.09-0.09-2.93,0.05-3.89-0.56
		c-0.57-0.37,0.84-0.62,0.95-0.64c0.54-0.06,1.1-0.07,1.64-0.06c2.69,0.02,5.42,0.21,8.1,0.41c1.5,0.11,3,0.31,4.45,0.71
		c1.34,0.37,2.44,1.06,3.7,1.59c1.73,0.73,1.46-1.45,0.65-2.27c-0.97-0.98-2.53-1.21-3.83-1.45c-2.96-0.55-5.96-0.87-8.96-0.98
		c-2.93-0.12-6.06,0.1-8.9,0.92C57.51,4.42,60.98,6.69,66.71,6.68 M55.28,5.33c-6.08,0.92-11.98,2.52-17.84,4.39
		c-5.76,1.83-11.65,3.91-16.8,7.12c-5.12,3.18-9.42,8.31-12.71,13.38c-1.58,2.44-4.15,9.8-4.42,11.19
		c-1.45,7.54,1.67,2.97,1.83,2.44c0.36-1.19,2.19-8.15,3.53-10.6c2.92-5.3,7.2-10.59,12.26-13.85c5.03-3.24,10.86-5.26,16.51-7.11
		c5.71-1.86,11.54-3.68,17.45-4.74C59.92,6.69,58.96,4.78,55.28,5.33 M9.57,37.07c2.81-5.45,5.34-10.85,10.54-14.44
		c4.99-3.44,10.89-4.95,16.45-7.18c2.79-1.12,5.34-2.76,8.25-3.52c2.91-0.76,5.9-1.2,8.82-1.92c5.75-1.41,11.61-2.45,17.53-1.55
		c5.54,0.84,11.21,2.05,16.47,3.99c1.04,0.38,2.32,0.76,2.97,1.73c1.08,1.62-1.34,1.71-2.32,1.36c-1.25-0.44-2.28-1.32-3.54-1.73
		c-1.48-0.49-2.99-0.84-4.51-1.15c-2.99-0.6-6.02-1.27-9.05-1.68c-3-0.4-6-0.32-9.01,0.03c-2.84,0.34-5.63,0.95-8.46,1.41
		c-1.17,0.19-2.44,0.31-3.55,0.73c-0.51,0.19-0.56,0.53,0.04,0.54c0.69,0,1.39-0.13,2.07-0.24c5.72-0.97,11.25-1.94,17.08-1.41
		c2.87,0.26,5.7,0.82,8.51,1.47c3.1,0.71,6.21,1.54,9.12,2.83c2.52,1.12,5.15,2.72,6.25,5.38c0.23,0.55,0.33,1.13-0.11,1.62
		c-0.39,0.43-1.05,0.52-1.5,0.13c-1.08-0.93-1.85-2.21-2.97-3.13c-0.99-0.81-2.2-1.25-3.37-1.74c-1.4-0.58-2.82-1.11-4.26-1.59
		c-2.85-0.94-5.77-1.68-8.73-2.15c-6.1-0.96-12.05-0.34-18.12,0.56c-2.96,0.44-5.85,0.53-8.84,0.65c-2.86,0.11-5.64,0.75-8.36,1.63
		c-2.88,0.93-5.76,1.94-8.56,3.1c-2.75,1.14-5.71,2.39-7.99,4.35c-1.02,0.88-1.89,1.91-2.74,2.95c-0.91,1.13-1.93,2.19-2.78,3.36
		c-1.59,2.18-2.35,5.02-3.58,7.42c-0.25,0.48-0.46,0.98-0.76,1.44C7.65,44.74,7.31,41.45,9.57,37.07"/>
</g>
</svg>
